<svg id="svg" version="1.1" xmlns="http://www.w3.org/2000/svg" xmlns:xlink="http://www.w3.org/1999/xlink" width="400" height="458.93186003683246" viewBox="0, 0, 400,458.93186003683246"><g id="svgg"><path id="path0" d="M253.720 56.000 C 253.720 57.210,253.795 57.705,253.887 57.100 C 253.978 56.495,253.978 55.505,253.887 54.900 C 253.795 54.295,253.720 54.790,253.720 56.000 M213.800 70.400 C 213.360 70.589,208.010 70.756,201.910 70.772 L 190.820 70.800 190.696 129.500 C 190.573 187.738,190.566 188.228,189.722 191.800 C 186.273 206.407,175.448 217.370,160.600 221.295 C 157.547 222.102,156.196 222.151,131.200 222.370 L 105.000 222.600 104.894 234.900 L 104.788 247.200 130.094 247.172 C 144.012 247.156,156.930 246.987,158.800 246.795 C 188.039 243.804,212.280 219.566,215.202 190.400 C 215.789 184.545,215.692 69.995,215.100 70.028 C 214.825 70.044,214.240 70.211,213.800 70.400 M98.400 82.633 C 66.857 88.282,55.341 132.772,79.200 156.808 C 88.626 166.303,92.134 167.199,119.900 167.199 L 139.200 167.200 139.192 144.300 C 139.185 122.582,139.023 118.598,137.952 113.800 C 133.483 93.770,115.471 79.576,98.400 82.633 M110.900 192.700 C 118.765 192.760,131.635 192.760,139.500 192.700 C 147.365 192.639,140.930 192.590,125.200 192.590 C 109.470 192.590,103.035 192.639,110.900 192.700 M233.100 197.082 C 233.595 197.178,234.405 197.178,234.900 197.082 C 235.395 196.987,234.990 196.909,234.000 196.909 C 233.010 196.909,232.605 196.987,233.100 197.082 M238.400 214.057 C 233.620 214.716,225.757 216.805,224.466 217.760 C 224.173 217.976,223.296 219.424,222.518 220.977 C 216.403 233.181,201.850 247.769,189.578 253.997 C 185.567 256.033,185.511 256.131,183.321 265.000 L 182.234 269.400 182.106 330.150 L 181.978 390.899 182.889 390.655 C 183.390 390.521,188.975 390.408,195.300 390.405 L 206.800 390.400 206.801 335.100 C 206.803 281.732,206.967 272.962,208.036 269.000 C 212.006 254.298,222.266 243.868,236.800 239.757 C 239.155 239.091,241.732 239.002,264.200 238.811 L 289.000 238.600 289.106 226.100 L 289.211 213.600 265.106 213.649 C 251.848 213.677,239.830 213.860,238.400 214.057 M165.309 265.600 C 165.309 266.590,165.387 266.995,165.482 266.500 C 165.578 266.005,165.578 265.195,165.482 264.700 C 165.387 264.205,165.309 264.610,165.309 265.600 M258.800 318.404 C 258.800 346.145,258.772 345.835,261.981 354.200 C 271.569 379.194,300.604 386.519,318.405 368.434 C 328.284 358.397,333.551 340.332,330.428 327.200 C 326.420 310.346,317.067 299.157,303.534 295.029 L 300.159 294.000 279.479 294.000 L 258.800 294.000 258.800 318.404 M356.142 329.400 C 356.141 331.380,356.208 332.240,356.292 331.312 C 356.376 330.384,356.377 328.764,356.295 327.712 C 356.212 326.660,356.143 327.420,356.142 329.400 M356.142 343.000 C 356.141 344.980,356.208 345.840,356.292 344.912 C 356.376 343.984,356.377 342.364,356.295 341.312 C 356.212 340.260,356.143 341.020,356.142 343.000 " stroke="none" fill="#fbfbfb" fill-rule="evenodd"></path><path id="path1" d="M201.296 7.549 C 199.246 7.944,197.728 9.355,175.849 31.200 C 159.223 47.800,155.166 52.054,154.957 53.108 C 154.814 53.828,154.540 54.514,154.348 54.632 C 153.784 54.980,153.945 56.460,154.800 58.800 C 155.240 60.004,155.600 61.034,155.600 61.089 C 155.600 61.317,158.673 63.091,159.600 63.399 C 160.150 63.582,163.705 63.837,167.499 63.966 L 174.398 64.200 174.415 125.283 C 174.431 183.587,174.344 190.140,173.547 190.633 C 173.356 190.751,173.200 191.206,173.200 191.646 C 173.200 194.981,164.158 203.707,159.200 205.157 C 158.210 205.446,156.985 205.845,156.478 206.043 C 155.949 206.249,135.399 206.400,108.378 206.397 L 61.200 206.390 61.200 199.990 C 61.200 196.469,61.031 193.277,60.824 192.895 C 60.617 192.513,60.347 191.718,60.224 191.128 C 60.100 190.538,59.729 189.786,59.399 189.457 C 59.070 189.127,58.800 188.682,58.800 188.468 C 58.800 187.894,56.096 186.400,55.057 186.400 C 54.564 186.400,53.940 186.180,53.670 185.910 C 53.283 185.523,53.015 185.523,52.395 185.910 C 51.964 186.180,51.335 186.400,50.997 186.400 C 49.544 186.400,46.287 189.444,26.541 209.264 C 2.685 233.209,2.930 232.882,5.017 237.913 C 5.692 239.540,46.035 280.307,49.072 282.431 C 52.178 284.603,59.600 282.657,59.600 279.672 C 59.600 279.412,59.780 279.200,60.000 279.200 C 60.220 279.200,60.400 278.671,60.400 278.024 C 60.400 277.377,60.580 276.736,60.800 276.600 C 61.041 276.451,61.200 273.663,61.200 269.576 L 61.200 262.800 68.476 262.800 C 72.491 262.800,76.772 263.011,78.027 263.270 C 80.865 263.856,160.166 263.102,162.400 262.468 C 163.170 262.249,164.680 261.950,165.756 261.802 L 167.712 261.534 167.430 263.657 C 167.275 264.825,166.987 265.974,166.790 266.211 C 166.583 266.461,166.422 293.987,166.408 331.596 C 166.395 367.320,166.284 396.650,166.160 396.774 C 166.037 396.898,162.381 397.090,158.036 397.200 C 149.192 397.424,148.249 397.729,146.758 400.854 C 145.040 404.454,145.059 405.666,146.887 409.000 C 147.815 410.691,189.523 452.179,191.080 452.959 C 193.067 453.954,196.593 453.800,198.565 452.631 C 200.082 451.732,240.802 410.905,242.319 408.762 C 243.171 407.558,243.999 404.446,243.541 404.164 C 243.354 404.048,243.200 403.511,243.200 402.971 C 243.200 398.907,240.098 397.439,231.000 397.200 L 223.400 397.000 223.299 335.021 C 223.232 293.970,223.333 272.907,223.599 272.641 C 223.819 272.421,224.000 271.866,224.000 271.409 C 224.000 266.281,234.652 255.600,239.766 255.600 C 240.309 255.600,240.864 255.420,241.000 255.200 C 241.163 254.937,257.604 254.800,289.024 254.800 L 336.800 254.800 336.800 261.023 C 336.800 267.255,337.238 270.449,338.256 271.631 C 338.555 271.979,338.800 272.429,338.801 272.631 C 338.803 274.306,345.527 275.294,348.180 274.010 C 349.993 273.132,390.290 232.977,392.138 230.207 C 393.538 228.108,393.629 224.617,392.340 222.447 C 391.154 220.449,351.035 180.250,348.765 178.785 C 345.935 176.958,342.901 177.075,340.200 179.115 C 337.307 181.301,336.873 182.858,336.832 191.200 L 336.800 197.800 289.700 197.900 C 237.517 198.011,235.984 198.039,232.680 198.956 C 231.405 199.310,230.267 199.600,230.152 199.600 C 229.822 199.600,230.459 195.110,230.946 194.000 C 231.255 193.295,231.446 174.006,231.592 128.600 L 231.800 64.200 238.800 63.967 C 242.650 63.840,246.250 63.554,246.800 63.333 C 247.350 63.112,248.370 62.688,249.066 62.391 C 252.098 61.096,253.101 55.118,250.831 51.872 C 249.453 49.902,208.172 8.672,207.000 8.096 C 205.873 7.541,202.841 7.251,201.296 7.549 M100.400 58.441 C 99.410 58.631,96.800 59.048,94.600 59.367 C 92.400 59.687,89.790 60.116,88.800 60.320 C 86.793 60.735,85.751 61.081,82.800 62.309 C 82.250 62.538,81.000 63.025,80.023 63.390 C 79.046 63.756,77.758 64.403,77.161 64.828 C 76.565 65.252,75.973 65.600,75.846 65.600 C 74.528 65.600,65.829 72.284,61.970 76.263 C 55.195 83.248,50.795 90.191,46.799 100.200 C 46.199 101.703,44.442 108.596,44.021 111.100 C 43.789 112.475,43.407 114.635,43.171 115.900 C 42.731 118.254,42.873 132.150,43.363 134.800 C 44.415 140.485,45.475 145.256,45.985 146.600 C 46.152 147.040,46.519 148.120,46.799 149.000 C 47.080 149.880,47.915 151.918,48.655 153.529 C 49.395 155.140,50.000 156.539,50.000 156.636 C 50.000 156.734,50.675 157.938,51.500 159.312 C 52.325 160.686,53.237 162.267,53.526 162.827 C 54.253 164.233,59.722 170.929,62.612 173.951 C 69.141 180.779,80.342 187.284,89.000 189.276 C 89.880 189.478,91.410 189.827,92.400 190.051 C 96.238 190.920,106.726 191.215,130.000 191.110 L 154.200 191.000 156.124 190.044 C 158.450 188.890,160.650 186.766,162.000 184.373 L 163.000 182.600 163.116 155.400 C 163.226 129.323,162.911 117.025,162.016 112.500 C 161.787 111.345,161.437 109.545,161.239 108.500 C 161.040 107.455,160.578 105.610,160.212 104.400 C 159.846 103.190,159.453 101.840,159.340 101.400 C 159.226 100.960,158.991 100.240,158.817 99.800 C 158.511 99.025,158.207 98.356,155.636 92.800 C 153.821 88.878,151.323 85.062,147.000 79.609 C 143.939 75.748,136.065 68.979,132.000 66.713 C 131.010 66.161,129.570 65.338,128.800 64.885 C 128.030 64.431,125.690 63.403,123.600 62.601 C 121.510 61.798,119.487 60.975,119.105 60.771 C 118.723 60.567,117.947 60.400,117.379 60.400 C 116.812 60.400,116.040 60.235,115.664 60.034 C 115.288 59.833,112.477 59.378,109.418 59.024 C 106.358 58.669,103.482 58.315,103.027 58.237 C 102.572 58.159,101.390 58.251,100.400 58.441 M216.000 130.140 C 216.000 164.302,215.845 191.590,215.646 192.240 C 215.452 192.878,215.080 194.660,214.821 196.200 C 214.311 199.223,212.478 205.561,211.934 206.180 C 211.750 206.389,211.600 206.851,211.600 207.206 C 211.600 209.034,204.540 221.045,201.827 223.832 C 201.372 224.299,200.280 225.539,199.400 226.587 C 197.619 228.707,195.610 230.668,193.800 232.053 C 193.140 232.558,192.330 233.262,192.000 233.616 C 189.898 235.876,177.352 243.199,175.580 243.200 C 175.239 243.200,174.789 243.350,174.580 243.534 C 173.961 244.078,167.623 245.911,164.600 246.421 C 163.060 246.680,161.278 247.052,160.640 247.246 C 160.002 247.441,147.087 247.600,131.940 247.600 L 104.400 247.600 104.400 235.080 C 104.400 225.876,104.527 222.433,104.880 222.080 C 105.243 221.717,111.608 221.600,131.074 221.600 C 148.375 221.600,157.412 221.456,158.694 221.159 C 162.613 220.254,163.854 219.873,165.911 218.949 C 167.072 218.427,168.184 218.000,168.383 218.000 C 169.294 218.000,178.070 211.659,179.400 210.039 C 179.840 209.503,180.672 208.510,181.248 207.832 C 182.599 206.243,185.887 201.150,186.353 199.923 C 186.552 199.401,187.077 198.170,187.520 197.187 C 187.963 196.204,188.441 194.860,188.581 194.200 C 188.721 193.540,189.044 192.280,189.298 191.400 C 189.636 190.230,189.794 173.825,189.884 130.421 C 189.981 83.713,190.114 70.975,190.504 70.727 C 190.777 70.554,195.680 70.407,201.400 70.400 C 209.236 70.391,212.244 70.248,213.600 69.821 C 214.590 69.509,215.535 69.241,215.700 69.227 C 215.865 69.212,216.000 96.623,216.000 130.140 M105.576 81.983 C 106.799 82.194,109.060 82.576,110.600 82.833 C 118.087 84.081,128.949 92.341,133.158 99.987 C 135.687 104.582,137.180 108.328,138.342 113.000 C 139.781 118.784,139.800 119.173,139.800 143.600 L 139.800 167.800 119.400 167.800 C 93.235 167.800,90.685 167.260,81.646 159.800 C 78.708 157.375,72.837 150.420,72.811 149.333 C 72.805 149.077,72.663 148.807,72.497 148.733 C 72.003 148.516,69.708 143.954,69.008 141.797 C 68.651 140.699,68.201 139.440,68.007 139.000 C 67.813 138.560,67.562 137.660,67.449 137.000 C 67.337 136.340,66.971 134.180,66.636 132.200 C 65.852 127.554,65.853 121.493,66.638 117.200 C 66.981 115.330,67.356 113.124,67.473 112.297 C 67.589 111.471,67.845 110.695,68.042 110.574 C 68.239 110.452,68.400 109.924,68.400 109.400 C 68.400 108.876,68.580 108.336,68.800 108.200 C 69.020 108.064,69.200 107.632,69.200 107.239 C 69.200 106.445,72.002 100.676,72.490 100.467 C 72.660 100.393,72.800 100.123,72.800 99.867 C 72.801 99.610,73.900 98.050,75.244 96.400 C 82.106 87.972,90.853 82.541,97.858 82.360 C 98.706 82.338,99.850 82.176,100.400 82.000 C 101.813 81.548,103.024 81.544,105.576 81.983 M288.967 213.043 C 289.526 213.257,289.600 214.797,289.600 226.243 L 289.600 239.200 267.900 239.240 C 241.102 239.290,238.608 239.461,232.800 241.649 C 223.824 245.031,215.121 252.959,211.337 261.200 C 207.575 269.395,207.688 267.168,207.640 334.100 L 207.600 390.400 197.220 390.400 C 189.283 390.400,186.297 390.541,184.535 391.000 C 183.269 391.330,181.991 391.600,181.696 391.600 C 180.818 391.600,181.229 272.108,182.121 268.200 C 182.472 266.660,182.867 264.860,182.998 264.200 C 184.285 257.755,185.458 255.522,188.273 254.157 C 189.553 253.537,190.660 252.888,190.733 252.715 C 190.807 252.542,191.026 252.400,191.221 252.400 C 191.416 252.400,192.862 251.545,194.436 250.500 C 196.009 249.455,197.590 248.420,197.948 248.200 C 198.307 247.980,198.690 247.709,198.800 247.598 C 198.910 247.486,199.686 246.884,200.524 246.259 C 203.207 244.259,208.534 239.223,211.200 236.166 C 214.592 232.276,220.800 223.674,220.800 222.861 C 220.800 222.644,220.942 222.407,221.115 222.333 C 221.288 222.260,221.937 221.153,222.557 219.873 C 223.921 217.059,226.207 215.859,232.600 214.602 C 233.260 214.472,234.610 214.177,235.600 213.946 C 239.507 213.036,286.860 212.234,288.967 213.043 M244.200 270.090 C 240.424 271.034,237.938 272.898,236.148 276.129 L 235.000 278.200 234.890 308.372 C 234.761 343.911,235.134 350.612,237.600 357.000 C 237.770 357.440,238.142 358.610,238.426 359.600 C 238.711 360.590,239.070 361.580,239.223 361.800 C 239.377 362.020,239.640 362.650,239.809 363.200 C 242.872 373.192,255.679 388.595,265.418 394.000 C 266.288 394.482,267.900 395.385,269.000 396.006 C 281.248 402.919,300.469 404.490,312.633 399.572 C 313.275 399.313,314.205 398.943,314.700 398.750 C 324.017 395.125,334.268 387.644,339.600 380.579 C 339.930 380.142,340.735 379.068,341.388 378.192 C 342.041 377.316,342.723 376.420,342.902 376.200 C 343.479 375.493,347.384 369.034,347.860 368.000 C 350.131 363.065,350.866 361.152,352.012 357.200 C 352.490 355.550,353.033 353.840,353.218 353.400 C 353.403 352.960,353.646 351.880,353.757 351.000 C 353.869 350.120,354.171 348.140,354.429 346.600 C 355.034 342.981,355.034 329.419,354.429 325.800 C 354.171 324.260,353.869 322.280,353.757 321.400 C 353.646 320.520,353.405 319.440,353.223 319.000 C 353.040 318.560,352.665 317.390,352.388 316.400 C 351.243 312.304,350.107 309.295,347.859 304.400 C 347.374 303.343,343.462 296.880,342.896 296.200 C 342.713 295.980,341.448 294.337,340.087 292.549 C 334.546 285.276,323.064 276.486,316.400 274.415 C 315.410 274.108,314.420 273.738,314.200 273.594 C 312.906 272.745,305.086 270.858,300.600 270.311 C 296.174 269.772,246.256 269.576,244.200 270.090 M302.000 293.881 C 302.550 294.121,303.810 294.556,304.800 294.849 C 305.790 295.142,307.454 295.791,308.498 296.291 C 309.542 296.791,310.543 297.200,310.723 297.200 C 310.902 297.200,311.398 297.522,311.825 297.917 C 312.251 298.311,313.410 299.197,314.400 299.886 C 316.367 301.255,320.723 305.667,322.609 308.200 C 323.264 309.079,324.115 310.148,324.500 310.575 C 324.885 311.002,325.200 311.480,325.200 311.637 C 325.200 311.794,325.790 312.975,326.512 314.262 C 327.233 315.548,328.075 317.410,328.384 318.400 C 328.692 319.390,329.066 320.380,329.214 320.600 C 330.428 322.397,331.589 330.026,331.589 336.200 C 331.589 342.374,330.428 350.003,329.214 351.800 C 329.066 352.020,328.692 353.010,328.384 354.000 C 328.075 354.990,327.233 356.852,326.512 358.138 C 325.790 359.425,325.200 360.606,325.200 360.763 C 325.200 360.920,324.882 361.398,324.494 361.825 C 324.106 362.251,323.203 363.410,322.487 364.400 C 320.740 366.815,316.260 371.316,314.237 372.689 C 313.337 373.300,312.251 374.115,311.825 374.500 C 311.398 374.885,310.908 375.200,310.736 375.200 C 310.563 375.200,309.472 375.629,308.311 376.154 C 303.825 378.180,298.832 379.336,294.800 379.279 C 292.367 379.245,287.961 378.660,287.766 378.346 C 287.649 378.155,287.122 378.000,286.595 378.000 C 286.069 378.000,285.134 377.799,284.519 377.554 C 282.602 376.791,277.410 374.272,277.200 374.003 C 277.090 373.862,276.190 373.194,275.200 372.518 C 272.230 370.491,266.752 364.365,264.758 360.841 C 264.185 359.829,263.359 358.370,262.923 357.600 C 261.523 355.129,260.075 350.999,259.138 346.800 C 258.322 343.149,258.066 335.695,258.034 314.660 L 258.000 293.120 279.500 293.283 C 293.775 293.391,301.336 293.592,302.000 293.881 " stroke="none" fill="#444444" fill-rule="evenodd"></path><path id="path2" d="M198.600 6.513 C 197.940 7.001,192.058 12.710,185.529 19.200 C 179.000 25.690,171.997 32.530,169.967 34.400 C 161.385 42.304,152.843 51.200,153.835 51.200 C 153.994 51.200,153.799 51.559,153.403 51.997 C 151.067 54.578,152.917 61.466,156.633 64.023 L 158.318 65.182 165.859 65.291 L 173.400 65.400 173.346 124.000 C 173.295 180.066,173.190 186.921,172.365 187.780 C 172.164 187.989,172.000 188.570,172.000 189.071 C 172.000 192.906,165.726 200.196,160.400 202.549 C 158.970 203.180,157.487 203.855,157.105 204.049 C 156.723 204.242,155.328 204.400,154.005 204.400 C 152.668 204.400,151.600 204.578,151.600 204.800 C 151.600 205.561,62.935 205.329,62.643 204.567 C 62.509 204.219,62.400 200.967,62.400 197.341 C 62.400 193.274,62.229 190.413,61.953 189.874 C 59.058 184.211,51.917 182.582,46.747 186.404 C 44.954 187.730,5.994 226.677,4.987 228.151 C 2.516 231.767,1.998 236.060,3.644 239.286 C 5.012 241.967,46.687 283.409,49.022 284.410 C 51.903 285.644,58.400 285.072,58.400 283.584 C 58.400 283.402,58.730 283.149,59.133 283.021 C 61.465 282.281,62.186 279.891,62.400 272.200 L 62.600 265.000 110.761 264.898 C 143.698 264.829,159.082 264.664,159.429 264.376 C 159.707 264.145,161.210 263.993,162.768 264.039 L 165.600 264.121 165.600 265.581 C 165.600 266.383,165.421 267.219,165.201 267.439 C 164.940 267.700,164.767 289.832,164.701 331.419 L 164.600 395.000 158.100 395.110 C 154.219 395.176,151.600 395.377,151.600 395.610 C 151.600 395.824,150.970 396.000,150.200 396.000 C 149.430 396.000,148.800 396.180,148.800 396.400 C 148.800 396.620,148.560 396.800,148.266 396.800 C 147.610 396.800,145.845 398.740,144.787 400.624 C 143.652 402.643,143.663 408.003,144.805 409.607 C 146.134 411.473,188.641 453.786,189.659 454.255 C 193.612 456.079,196.520 455.960,199.818 453.840 C 201.793 452.570,244.000 410.179,244.000 409.465 C 244.000 409.099,244.180 408.800,244.400 408.800 C 244.639 408.800,244.800 407.255,244.800 404.965 C 244.800 399.847,242.140 396.000,238.601 396.000 C 238.076 396.000,237.536 395.820,237.400 395.600 C 237.253 395.362,234.746 395.200,231.225 395.200 C 226.715 395.200,225.190 395.070,224.846 394.656 C 223.611 393.168,224.660 271.357,225.916 270.414 C 226.073 270.296,226.468 269.660,226.794 269.000 C 229.368 263.789,232.189 260.968,237.400 258.394 C 238.060 258.068,238.696 257.673,238.814 257.516 C 239.744 256.276,333.593 255.233,335.055 256.445 C 335.479 256.797,335.600 258.520,335.600 264.178 L 335.600 271.458 337.682 273.529 C 338.827 274.668,339.997 275.600,340.282 275.600 C 340.567 275.600,340.800 275.780,340.800 276.000 C 340.800 276.590,347.820 276.506,348.905 275.903 C 350.236 275.164,393.600 231.893,393.600 231.305 C 393.600 231.027,393.780 230.800,394.000 230.800 C 394.220 230.800,394.400 230.350,394.400 229.800 C 394.400 229.250,394.580 228.800,394.800 228.800 C 395.022 228.800,395.200 227.741,395.200 226.424 C 395.200 225.117,395.020 223.936,394.800 223.800 C 394.580 223.664,394.400 223.113,394.400 222.576 C 394.400 222.039,394.220 221.600,394.000 221.600 C 393.780 221.600,393.600 221.333,393.600 221.006 C 393.600 220.336,351.495 178.000,350.829 178.000 C 350.593 178.000,350.400 177.842,350.400 177.649 C 350.400 177.455,349.815 177.080,349.100 176.815 C 348.385 176.550,347.487 176.168,347.105 175.967 C 346.220 175.499,343.004 175.491,342.095 175.953 C 341.713 176.148,340.860 176.553,340.200 176.853 C 339.048 177.378,337.200 178.933,337.200 179.377 C 337.200 179.495,336.885 179.958,336.500 180.407 C 335.905 181.101,335.770 182.347,335.600 188.712 L 335.400 196.200 285.818 196.302 C 253.565 196.368,236.098 196.542,235.838 196.802 C 235.619 197.021,234.782 197.200,233.978 197.200 L 232.517 197.200 232.438 194.236 C 232.393 192.511,232.535 191.163,232.780 191.012 C 233.070 190.833,233.200 171.539,233.200 128.456 C 233.200 80.537,233.311 66.049,233.680 65.680 C 234.018 65.342,236.284 65.200,241.317 65.200 L 248.474 65.200 251.037 62.637 L 253.600 60.074 253.600 56.080 L 253.600 52.087 251.849 50.143 C 248.760 46.714,209.065 7.200,208.709 7.200 C 208.521 7.200,207.980 6.840,207.508 6.400 C 206.197 5.179,200.303 5.254,198.600 6.513 M204.200 6.800 C 204.336 7.020,204.982 7.200,205.635 7.200 C 207.001 7.200,207.221 7.406,233.512 33.400 C 250.557 50.252,251.504 51.309,252.362 54.428 C 253.208 57.509,251.049 62.800,248.945 62.800 C 248.645 62.800,248.400 62.980,248.400 63.200 C 248.400 63.420,248.051 63.600,247.624 63.600 C 247.197 63.600,246.736 63.780,246.600 64.000 C 246.450 64.242,243.563 64.400,239.276 64.400 L 232.200 64.400 232.168 124.500 C 232.138 182.206,232.008 191.715,231.206 194.800 C 230.245 198.500,230.288 198.800,231.786 198.800 C 232.538 198.800,233.250 198.643,233.368 198.452 C 233.874 197.634,245.244 197.425,289.500 197.421 L 336.400 197.416 336.400 190.837 C 336.400 182.991,336.639 182.105,339.518 179.300 L 341.673 177.200 344.464 177.200 C 348.370 177.200,347.706 176.627,371.402 200.469 C 396.079 225.298,393.600 222.397,393.600 226.444 L 393.600 229.678 383.655 239.739 C 348.166 275.641,349.757 274.137,346.121 275.216 C 344.772 275.616,344.182 275.614,343.121 275.204 C 337.074 272.867,336.415 271.532,336.406 261.600 L 336.400 255.000 288.500 255.210 C 244.447 255.404,240.464 255.476,238.902 256.108 C 231.494 259.105,226.355 264.569,224.347 271.586 C 223.642 274.050,223.607 277.043,223.596 335.386 L 223.584 396.600 231.033 396.709 L 238.482 396.818 240.156 397.970 C 243.739 400.435,245.264 406.745,242.774 408.800 C 242.641 408.910,242.360 409.315,242.150 409.699 C 241.775 410.387,201.166 451.232,199.695 452.400 C 198.062 453.697,197.114 454.000,194.685 454.000 C 192.302 454.000,190.010 453.364,190.003 452.700 C 190.001 452.535,189.757 452.400,189.461 452.400 C 188.921 452.400,148.105 411.449,146.600 409.397 C 145.077 407.321,144.293 403.961,145.200 403.400 C 145.420 403.264,145.600 402.713,145.600 402.176 C 145.600 401.639,145.780 401.200,146.000 401.200 C 146.220 401.200,146.400 401.018,146.400 400.797 C 146.400 400.164,148.486 397.979,149.680 397.360 C 150.492 396.939,152.602 396.800,158.174 396.800 L 165.588 396.800 165.757 334.900 C 165.912 278.105,166.111 266.695,166.987 264.106 C 167.549 262.446,167.077 262.076,164.935 262.495 C 159.418 263.576,152.038 263.740,107.641 263.769 L 61.483 263.800 61.566 269.819 C 61.656 276.357,61.098 278.947,59.105 281.241 C 57.026 283.632,52.526 284.657,49.761 283.368 C 47.978 282.537,5.661 240.455,4.944 238.800 C 2.222 232.518,1.108 234.061,27.191 207.985 C 52.504 182.678,51.024 183.713,57.408 186.843 C 60.484 188.351,61.400 191.209,61.400 199.300 L 61.400 206.000 108.281 206.000 C 135.144 206.000,155.555 205.846,156.081 205.640 C 156.587 205.442,157.959 204.994,159.132 204.644 C 160.304 204.295,161.772 203.647,162.394 203.205 C 163.015 202.762,163.708 202.400,163.934 202.400 C 164.597 202.400,170.800 196.071,170.800 195.396 C 170.800 195.279,171.214 194.513,171.720 193.692 C 172.631 192.216,173.297 190.314,173.855 187.600 C 174.013 186.830,174.202 158.795,174.274 125.300 L 174.405 64.400 167.226 64.400 C 162.872 64.400,159.950 64.243,159.800 64.000 C 159.664 63.780,159.203 63.600,158.776 63.600 C 158.349 63.600,158.000 63.420,158.000 63.200 C 158.000 62.980,157.788 62.800,157.528 62.800 C 156.628 62.800,154.494 59.994,154.048 58.225 C 152.878 53.578,152.537 54.015,174.559 31.956 C 198.513 7.960,199.325 7.200,200.981 7.200 C 201.515 7.200,202.064 7.020,202.200 6.800 C 202.336 6.580,202.786 6.400,203.200 6.400 C 203.614 6.400,204.064 6.580,204.200 6.800 M93.436 57.541 C 93.321 57.728,92.095 57.997,90.713 58.139 C 88.388 58.376,83.163 59.904,82.538 60.529 C 82.389 60.678,81.973 60.800,81.613 60.800 C 80.772 60.800,78.807 61.709,78.803 62.100 C 78.801 62.265,78.440 62.400,78.000 62.400 C 77.560 62.400,77.200 62.580,77.200 62.800 C 77.200 63.020,76.885 63.201,76.500 63.202 C 76.115 63.203,74.990 63.749,74.000 64.415 C 73.010 65.082,71.615 65.912,70.900 66.259 C 70.185 66.607,69.600 67.051,69.600 67.246 C 69.600 67.441,69.410 67.600,69.178 67.600 C 68.946 67.600,68.181 68.139,67.478 68.798 C 66.775 69.457,66.049 69.997,65.864 69.998 C 65.427 70.001,58.159 77.367,56.600 79.386 C 55.940 80.242,55.220 81.139,55.000 81.381 C 54.124 82.342,52.000 85.166,52.000 85.369 C 52.000 85.487,51.370 86.569,50.600 87.773 C 49.830 88.977,49.200 90.240,49.200 90.581 C 49.200 90.921,49.020 91.200,48.800 91.200 C 48.580 91.200,48.400 91.560,48.400 92.000 C 48.400 92.440,48.265 92.801,48.100 92.803 C 47.765 92.807,46.800 94.723,46.800 95.386 C 46.800 95.620,46.443 96.478,46.007 97.291 C 45.571 98.105,45.098 99.497,44.956 100.385 C 44.814 101.273,44.541 102.000,44.349 102.000 C 44.157 102.000,44.000 102.619,44.000 103.376 C 44.000 104.133,43.820 104.864,43.600 105.000 C 43.380 105.136,43.200 105.856,43.200 106.600 C 43.200 107.344,43.020 108.064,42.800 108.200 C 42.580 108.336,42.400 109.326,42.400 110.400 C 42.400 111.474,42.220 112.464,42.000 112.600 C 41.780 112.736,41.600 114.241,41.600 115.944 C 41.600 117.647,41.405 119.235,41.167 119.473 C 40.509 120.131,41.303 136.233,42.030 136.980 C 42.234 137.189,42.400 138.314,42.400 139.480 C 42.400 140.646,42.580 141.600,42.800 141.600 C 43.020 141.600,43.200 142.230,43.200 143.000 C 43.200 143.770,43.380 144.400,43.600 144.400 C 43.820 144.400,44.000 144.940,44.000 145.600 C 44.000 146.260,44.155 146.800,44.344 146.800 C 44.534 146.800,44.792 147.677,44.919 148.748 C 45.046 149.820,45.881 152.204,46.775 154.046 C 47.669 155.889,48.400 157.607,48.400 157.865 C 48.400 158.123,48.550 158.393,48.734 158.467 C 48.918 158.540,49.750 159.905,50.584 161.500 C 51.417 163.095,52.257 164.400,52.450 164.400 C 52.642 164.400,52.802 164.625,52.805 164.900 C 52.814 165.827,64.513 179.200,65.314 179.200 C 65.490 179.200,66.031 179.579,66.517 180.043 C 67.301 180.791,69.312 182.245,71.160 183.400 C 71.512 183.620,71.890 183.899,72.000 184.021 C 72.110 184.142,72.830 184.562,73.600 184.954 C 74.370 185.346,75.900 186.187,77.000 186.824 C 78.100 187.460,79.405 187.986,79.900 187.991 C 80.395 187.996,80.800 188.180,80.800 188.400 C 80.800 188.620,81.155 188.800,81.588 188.800 C 82.021 188.800,82.969 189.133,83.695 189.541 C 84.420 189.948,85.551 190.387,86.207 190.516 C 86.863 190.645,88.210 190.944,89.200 191.180 C 93.763 192.269,97.226 192.384,125.492 192.392 C 159.841 192.401,157.307 192.682,161.482 188.400 C 162.954 186.891,163.695 185.517,164.394 183.000 C 164.989 180.860,164.695 117.750,164.073 114.000 C 163.677 111.617,163.397 110.093,162.586 105.900 C 162.426 105.075,162.139 104.400,161.948 104.400 C 161.756 104.400,161.600 103.770,161.600 103.000 C 161.600 102.230,161.444 101.600,161.253 101.600 C 161.062 101.600,160.807 100.870,160.688 99.977 C 160.568 99.084,159.895 97.149,159.193 95.677 C 156.591 90.223,155.400 88.000,155.081 88.000 C 154.900 88.000,154.847 87.847,154.963 87.661 C 155.078 87.474,154.864 86.979,154.486 86.561 C 154.109 86.142,153.545 85.305,153.232 84.700 C 152.920 84.095,152.515 83.600,152.332 83.600 C 152.150 83.600,152.000 83.420,152.000 83.201 C 152.000 82.981,151.280 82.037,150.400 81.103 C 149.520 80.169,148.800 79.264,148.800 79.092 C 148.800 78.660,138.910 68.800,138.476 68.800 C 138.283 68.800,137.619 68.366,137.002 67.835 C 136.384 67.304,135.411 66.629,134.839 66.335 C 134.268 66.041,133.476 65.508,133.080 65.152 C 132.684 64.795,131.649 64.183,130.780 63.791 C 129.911 63.399,129.200 62.926,129.200 62.739 C 129.200 62.553,128.928 62.400,128.595 62.400 C 128.262 62.400,127.632 62.220,127.195 62.000 C 126.758 61.780,126.042 61.420,125.605 61.200 C 125.168 60.980,124.532 60.800,124.191 60.800 C 123.851 60.800,123.121 60.504,122.570 60.143 C 122.018 59.782,120.900 59.344,120.084 59.170 C 119.268 58.996,117.880 58.666,117.000 58.436 C 116.120 58.207,114.736 58.015,113.924 58.010 C 113.112 58.004,112.336 57.820,112.200 57.600 C 111.894 57.105,93.741 57.048,93.436 57.541 M111.200 58.752 C 116.303 59.683,117.530 59.965,120.000 60.775 C 122.555 61.613,123.917 62.146,125.295 62.847 C 125.677 63.041,126.166 63.200,126.383 63.200 C 126.600 63.200,128.147 64.010,129.822 65.000 C 131.496 65.990,133.031 66.800,133.233 66.800 C 133.435 66.800,133.600 66.980,133.600 67.200 C 133.600 67.420,133.855 67.600,134.167 67.600 C 134.478 67.600,134.793 67.735,134.867 67.900 C 134.989 68.174,137.029 69.775,139.839 71.800 C 143.067 74.126,149.286 81.374,152.882 87.000 C 155.568 91.203,158.637 97.483,159.075 99.675 C 159.201 100.303,159.460 100.914,159.652 101.032 C 159.843 101.150,160.000 101.777,160.000 102.424 C 160.000 103.071,160.180 103.600,160.400 103.600 C 160.620 103.600,160.800 104.129,160.800 104.776 C 160.800 105.423,160.980 106.064,161.200 106.200 C 161.420 106.336,161.600 107.121,161.600 107.944 C 161.600 108.767,161.763 109.611,161.961 109.820 C 162.351 110.230,162.582 111.870,163.171 118.400 C 163.379 120.710,163.561 135.778,163.575 151.885 C 163.604 185.408,163.762 183.799,160.052 187.599 C 155.925 191.826,157.357 191.668,125.094 191.440 C 94.865 191.226,94.910 191.228,91.342 190.264 C 89.991 189.899,88.503 189.600,88.037 189.600 C 87.571 189.600,86.877 189.441,86.495 189.247 C 85.779 188.883,84.154 188.189,82.400 187.500 C 81.850 187.284,81.087 186.948,80.705 186.753 C 80.323 186.559,79.803 186.400,79.550 186.400 C 79.296 186.400,77.741 185.590,76.093 184.600 C 74.446 183.610,73.011 182.800,72.903 182.800 C 72.649 182.800,68.832 180.023,67.825 179.106 C 67.398 178.718,66.937 178.400,66.800 178.400 C 66.353 178.400,59.315 171.066,57.012 168.200 C 55.775 166.660,54.501 165.083,54.181 164.695 C 53.861 164.308,53.600 163.921,53.600 163.836 C 53.600 163.751,52.908 162.538,52.063 161.141 C 49.909 157.581,47.056 151.445,46.230 148.600 C 45.847 147.280,45.368 145.887,45.167 145.505 C 44.965 145.123,44.800 144.394,44.800 143.885 C 44.800 143.376,44.638 142.789,44.441 142.580 C 44.244 142.371,43.981 141.480,43.857 140.600 C 43.199 135.931,42.948 134.556,42.675 134.117 C 42.240 133.419,42.306 115.597,42.745 115.055 C 43.088 114.632,43.249 113.704,43.849 108.700 C 43.975 107.655,44.240 106.800,44.439 106.800 C 44.637 106.800,44.800 106.296,44.800 105.680 C 44.800 105.064,44.947 104.389,45.127 104.180 C 45.307 103.971,45.691 102.810,45.982 101.600 C 46.272 100.390,47.132 98.050,47.893 96.400 C 48.655 94.750,49.483 92.950,49.734 92.400 C 49.985 91.850,50.958 90.183,51.895 88.696 C 52.833 87.209,53.600 85.889,53.600 85.763 C 53.600 85.571,56.172 82.226,56.801 81.600 C 56.912 81.490,57.782 80.373,58.736 79.117 C 62.134 74.645,68.961 68.932,75.000 65.506 C 78.236 63.670,78.833 63.359,80.000 62.900 C 81.323 62.380,82.989 61.692,84.100 61.207 C 85.636 60.537,90.766 59.374,94.758 58.791 C 96.165 58.585,97.425 58.308,97.558 58.174 C 97.906 57.824,108.594 58.277,111.200 58.752 M242.400 268.797 C 242.070 269.012,241.395 269.191,240.900 269.194 C 240.405 269.197,240.000 269.380,240.000 269.600 C 240.000 269.820,239.769 270.000,239.486 270.000 C 238.836 270.000,234.800 274.059,234.800 274.713 C 234.800 274.981,234.620 275.200,234.400 275.200 C 234.180 275.200,234.000 275.639,234.000 276.176 C 234.000 276.713,233.820 277.264,233.600 277.400 C 233.338 277.562,233.200 289.463,233.200 311.800 C 233.200 334.137,233.338 346.038,233.600 346.200 C 233.820 346.336,234.000 347.427,234.000 348.624 C 234.000 349.821,234.180 350.800,234.400 350.800 C 234.620 350.800,234.800 351.700,234.800 352.800 C 234.800 353.900,234.980 354.800,235.200 354.800 C 235.420 354.800,235.599 355.295,235.598 355.900 C 235.597 356.505,235.855 357.810,236.170 358.800 C 236.486 359.790,236.966 361.365,237.236 362.300 C 237.507 363.235,237.879 364.000,238.064 364.000 C 238.249 364.000,238.400 364.360,238.400 364.800 C 238.400 365.240,238.580 365.600,238.800 365.600 C 239.020 365.600,239.200 366.050,239.200 366.600 C 239.200 367.150,239.380 367.600,239.600 367.600 C 239.820 367.600,240.000 367.883,240.000 368.228 C 240.000 368.931,243.522 374.925,244.057 375.133 C 244.246 375.207,244.400 375.434,244.400 375.637 C 244.400 375.993,246.428 379.024,247.898 380.866 C 249.389 382.733,258.716 392.000,259.105 392.000 C 259.331 392.000,260.048 392.497,260.698 393.105 C 261.349 393.713,262.583 394.568,263.441 395.005 C 264.298 395.442,265.060 395.935,265.133 396.100 C 265.207 396.265,265.522 396.400,265.833 396.400 C 266.145 396.400,266.400 396.580,266.400 396.800 C 266.400 397.020,266.760 397.200,267.200 397.200 C 267.640 397.200,268.000 397.359,268.000 397.553 C 268.000 397.848,268.525 398.110,270.000 398.552 C 270.110 398.585,270.470 398.788,270.800 399.003 C 271.523 399.474,273.857 400.384,275.100 400.679 C 275.595 400.797,276.000 401.032,276.000 401.201 C 276.000 401.532,277.575 401.922,280.300 402.266 C 281.235 402.384,282.000 402.642,282.000 402.840 C 282.000 403.038,282.619 403.200,283.376 403.200 C 284.133 403.200,284.864 403.380,285.000 403.600 C 285.153 403.848,288.796 404.000,294.600 404.000 C 300.404 404.000,304.047 403.848,304.200 403.600 C 304.336 403.380,305.236 403.200,306.200 403.200 C 307.164 403.200,308.064 403.020,308.200 402.800 C 308.336 402.580,309.067 402.400,309.824 402.400 C 310.581 402.400,311.200 402.220,311.200 402.000 C 311.200 401.780,311.650 401.600,312.200 401.600 C 312.750 401.600,313.200 401.420,313.200 401.200 C 313.200 400.980,313.644 400.800,314.186 400.800 C 315.679 400.800,321.413 398.236,322.447 397.107 C 322.803 396.718,323.305 396.400,323.563 396.400 C 324.335 396.400,326.924 394.926,328.083 393.827 C 328.678 393.262,329.261 392.800,329.378 392.800 C 330.743 392.800,342.800 380.783,342.800 379.423 C 342.800 379.277,343.328 378.592,343.973 377.901 C 344.618 377.211,345.473 375.963,345.873 375.128 C 346.273 374.293,346.735 373.607,346.900 373.605 C 347.065 373.602,347.200 373.306,347.200 372.947 C 347.200 372.588,347.515 372.003,347.900 371.647 C 348.629 370.973,350.400 367.795,350.400 367.160 C 350.400 366.960,350.850 365.863,351.400 364.723 C 351.950 363.583,352.400 362.335,352.400 361.949 C 352.400 361.563,352.580 361.136,352.800 361.000 C 353.020 360.864,353.200 360.324,353.200 359.800 C 353.200 359.276,353.380 358.736,353.600 358.600 C 353.820 358.464,354.000 357.834,354.000 357.200 C 354.000 356.566,354.156 355.951,354.346 355.833 C 354.536 355.716,354.795 354.940,354.922 354.110 C 355.048 353.279,355.269 352.150,355.413 351.600 C 355.556 351.050,355.770 348.125,355.888 345.100 C 356.006 342.075,356.259 339.600,356.451 339.600 C 356.643 339.600,356.800 338.070,356.800 336.200 C 356.800 334.330,356.645 332.800,356.456 332.800 C 356.267 332.800,356.009 330.325,355.884 327.300 C 355.758 324.275,355.542 321.350,355.404 320.800 C 355.265 320.250,355.048 319.121,354.922 318.290 C 354.795 317.460,354.536 316.684,354.346 316.567 C 354.156 316.449,353.997 315.958,353.994 315.476 C 353.987 314.519,353.113 311.780,352.674 311.341 C 352.523 311.190,352.400 310.683,352.400 310.213 C 352.400 309.744,352.249 309.189,352.065 308.980 C 351.881 308.771,351.323 307.610,350.824 306.400 C 349.221 302.513,348.656 301.414,347.920 300.753 C 347.524 300.397,347.200 299.812,347.200 299.453 C 347.200 299.094,347.065 298.798,346.900 298.795 C 346.735 298.793,346.273 298.107,345.873 297.272 C 345.473 296.437,344.647 295.219,344.036 294.566 C 343.426 293.913,342.853 293.183,342.763 292.944 C 342.259 291.600,334.696 283.415,333.200 282.594 C 332.650 282.292,331.625 281.495,330.922 280.823 C 330.219 280.150,329.536 279.600,329.404 279.600 C 329.273 279.600,328.678 279.138,328.083 278.573 C 326.924 277.474,324.335 276.000,323.563 276.000 C 323.305 276.000,322.803 275.682,322.447 275.293 C 321.615 274.384,318.797 273.036,316.000 272.208 C 314.790 271.850,313.487 271.387,313.105 271.179 C 312.723 270.970,311.958 270.800,311.405 270.800 C 310.852 270.800,310.400 270.620,310.400 270.400 C 310.400 270.180,309.601 270.000,308.624 270.000 C 307.647 270.000,306.748 269.839,306.626 269.642 C 306.018 268.658,243.871 267.840,242.400 268.797 M301.400 269.798 C 302.940 269.945,304.371 270.230,304.580 270.432 C 304.789 270.635,305.543 270.800,306.256 270.800 C 306.969 270.800,307.664 270.980,307.800 271.200 C 307.936 271.420,308.656 271.600,309.400 271.600 C 310.144 271.600,310.864 271.780,311.000 272.000 C 311.136 272.220,311.553 272.400,311.926 272.400 C 312.834 272.400,318.993 274.848,321.000 276.007 C 321.880 276.515,323.099 277.187,323.710 277.499 C 327.336 279.358,336.846 287.584,339.549 291.200 C 340.124 291.970,340.686 292.690,340.798 292.800 C 342.041 294.029,346.400 300.545,346.400 301.174 C 346.400 301.372,346.553 301.593,346.739 301.667 C 347.059 301.792,348.668 305.028,350.187 308.600 C 350.561 309.480,351.032 310.513,351.234 310.895 C 351.435 311.277,351.600 311.864,351.600 312.200 C 351.600 312.536,351.762 313.123,351.959 313.505 C 356.114 321.546,356.114 350.854,351.959 358.895 C 351.762 359.277,351.600 359.864,351.600 360.200 C 351.600 360.536,351.435 361.123,351.234 361.505 C 351.032 361.887,350.561 362.920,350.187 363.800 C 348.668 367.372,347.059 370.608,346.739 370.733 C 346.553 370.807,346.400 371.030,346.400 371.229 C 346.400 371.594,342.903 377.226,342.445 377.600 C 342.310 377.710,341.306 378.970,340.214 380.400 C 336.564 385.177,331.473 389.810,325.449 393.835 C 323.031 395.450,318.167 397.900,315.200 398.998 C 313.550 399.608,312.029 400.263,311.820 400.454 C 311.611 400.644,310.846 400.800,310.120 400.800 C 309.394 400.800,308.800 400.961,308.800 401.158 C 308.800 401.355,308.125 401.618,307.300 401.744 C 300.603 402.760,298.477 402.966,294.800 402.957 C 289.873 402.943,284.464 402.427,284.164 401.941 C 284.048 401.754,283.344 401.600,282.600 401.600 C 281.856 401.600,281.136 401.420,281.000 401.200 C 280.864 400.980,280.331 400.800,279.816 400.800 C 278.748 400.800,270.284 397.487,269.600 396.801 C 269.490 396.690,268.230 395.989,266.800 395.242 C 261.136 392.282,253.013 385.257,249.200 380.018 C 248.650 379.262,247.705 378.070,247.100 377.369 C 246.495 376.668,246.000 375.989,246.000 375.861 C 246.000 375.733,245.010 374.109,243.800 372.252 C 242.590 370.396,241.600 368.768,241.600 368.634 C 241.600 368.393,240.595 366.056,239.176 363.000 C 238.473 361.486,237.675 359.001,236.734 355.400 C 236.505 354.520,236.155 353.387,235.958 352.881 C 235.761 352.376,235.600 351.197,235.600 350.261 C 235.600 349.326,235.433 348.389,235.229 348.180 C 234.229 347.155,233.507 283.704,234.449 279.600 C 235.526 274.907,239.822 270.014,242.884 269.994 C 243.388 269.991,244.070 269.811,244.400 269.595 C 245.065 269.160,296.630 269.343,301.400 269.798 " stroke="none" fill="#4473c1" fill-rule="evenodd"></path><path id="path3" d="M213.600 69.821 C 212.244 70.248,209.268 70.389,201.533 70.394 C 195.886 70.397,190.981 70.509,190.633 70.643 C 190.059 70.863,190.005 76.428,190.053 129.943 C 190.083 162.424,190.247 188.100,190.418 187.000 C 190.590 185.900,190.746 159.313,190.765 127.917 L 190.800 70.835 202.300 70.697 C 208.625 70.621,214.212 70.410,214.716 70.229 L 215.631 69.899 215.516 131.335 C 215.452 165.125,215.522 192.463,215.672 192.086 C 216.046 191.143,216.074 69.193,215.700 69.227 C 215.535 69.241,214.590 69.509,213.600 69.821 M100.400 82.000 C 99.733 82.214,100.532 82.320,102.800 82.320 C 105.068 82.320,105.867 82.214,105.200 82.000 C 104.650 81.824,103.570 81.680,102.800 81.680 C 102.030 81.680,100.950 81.824,100.400 82.000 M93.400 83.158 C 88.772 84.510,84.230 87.276,79.743 91.475 C 77.308 93.754,72.801 99.201,72.800 99.867 C 72.800 100.123,72.660 100.393,72.490 100.467 C 72.002 100.676,69.200 106.445,69.200 107.239 C 69.200 107.632,69.020 108.064,68.800 108.200 C 68.580 108.336,68.400 108.876,68.400 109.400 C 68.400 109.924,68.239 110.452,68.042 110.574 C 67.845 110.695,67.589 111.471,67.473 112.297 C 67.356 113.124,66.981 115.330,66.638 117.200 C 65.853 121.493,65.852 127.554,66.636 132.200 C 66.971 134.180,67.337 136.340,67.449 137.000 C 67.562 137.660,67.813 138.560,68.007 139.000 C 68.201 139.440,68.651 140.699,69.008 141.797 C 69.708 143.954,72.003 148.516,72.497 148.733 C 72.663 148.807,72.805 149.077,72.811 149.333 C 72.837 150.420,78.708 157.375,81.646 159.800 C 90.685 167.260,93.235 167.800,119.400 167.800 L 139.800 167.800 139.800 143.600 C 139.800 119.173,139.781 118.784,138.342 113.000 C 137.180 108.328,135.687 104.582,133.158 99.987 C 128.304 91.169,115.432 82.277,107.800 82.469 C 106.844 82.493,106.602 82.571,107.200 82.664 C 122.240 84.995,134.235 97.139,137.952 113.800 C 139.023 118.598,139.185 122.582,139.192 144.300 L 139.200 167.200 119.900 167.199 C 94.355 167.199,91.607 166.718,83.891 160.902 C 54.870 139.025,64.364 87.828,98.400 82.661 C 98.950 82.577,98.590 82.497,97.600 82.483 C 96.610 82.469,94.720 82.772,93.400 83.158 M189.400 190.659 C 189.262 191.507,188.981 192.613,188.775 193.119 C 188.569 193.624,188.400 194.443,188.400 194.939 C 188.400 195.434,188.249 196.011,188.065 196.220 C 187.881 196.429,187.319 197.590,186.815 198.800 C 185.835 201.156,182.963 205.816,181.248 207.832 C 180.672 208.510,179.840 209.503,179.400 210.039 C 178.070 211.659,169.294 218.000,168.383 218.000 C 168.184 218.000,167.072 218.427,165.911 218.949 C 163.854 219.873,162.613 220.254,158.694 221.159 C 157.412 221.456,148.375 221.600,131.074 221.600 C 111.608 221.600,105.243 221.717,104.880 222.080 C 104.527 222.433,104.400 225.876,104.400 235.080 L 104.400 247.600 132.100 247.572 C 147.335 247.556,160.109 247.421,160.486 247.272 C 160.864 247.122,148.486 247.059,132.980 247.131 L 104.788 247.261 104.894 234.931 L 105.000 222.600 131.200 222.370 C 156.196 222.151,157.547 222.102,160.600 221.295 C 173.187 217.968,183.166 209.358,187.831 197.800 C 189.137 194.562,190.300 189.767,189.880 189.347 C 189.754 189.221,189.539 189.812,189.400 190.659 M214.846 193.317 C 211.140 218.630,190.077 240.890,165.219 245.766 C 161.853 246.426,160.773 246.800,162.233 246.800 C 164.364 246.799,172.543 244.652,174.495 243.581 C 174.877 243.371,175.417 243.200,175.695 243.200 C 177.371 243.198,189.980 235.787,192.000 233.616 C 192.330 233.262,193.140 232.558,193.800 232.053 C 195.610 230.668,197.619 228.707,199.400 226.587 C 200.280 225.539,201.372 224.299,201.827 223.832 C 204.441 221.147,211.600 209.051,211.600 207.321 C 211.600 207.028,211.771 206.477,211.981 206.095 C 213.219 203.838,215.419 194.987,215.069 193.667 C 214.972 193.300,214.872 193.143,214.846 193.317 M241.800 213.225 C 239.380 213.391,236.590 213.716,235.600 213.946 C 234.610 214.177,233.260 214.472,232.600 214.602 C 226.207 215.859,223.921 217.059,222.557 219.873 C 221.937 221.153,221.288 222.260,221.115 222.333 C 220.942 222.407,220.800 222.644,220.800 222.861 C 220.800 223.674,214.592 232.276,211.200 236.166 C 208.534 239.223,203.207 244.259,200.524 246.259 C 199.686 246.884,198.910 247.486,198.800 247.598 C 198.690 247.709,198.307 247.980,197.948 248.200 C 197.590 248.420,196.009 249.455,194.436 250.500 C 192.862 251.545,191.416 252.400,191.221 252.400 C 191.026 252.400,190.807 252.542,190.733 252.715 C 190.660 252.888,189.553 253.537,188.273 254.157 C 185.458 255.522,184.285 257.755,182.998 264.200 C 182.867 264.860,182.472 266.660,182.121 268.200 C 181.555 270.679,181.464 277.911,181.321 331.339 L 181.159 391.677 182.880 391.388 C 185.683 390.916,186.521 390.350,184.089 390.572 L 181.978 390.765 182.106 330.082 L 182.234 269.400 183.321 265.000 C 185.511 256.131,185.567 256.033,189.578 253.997 C 201.850 247.769,216.403 233.181,222.518 220.977 C 224.136 217.749,224.288 217.603,227.000 216.697 C 235.422 213.883,238.953 213.600,265.635 213.600 L 289.211 213.600 289.106 226.100 L 289.000 238.600 264.200 238.811 C 241.732 239.002,239.155 239.091,236.800 239.757 C 222.266 243.868,212.006 254.298,208.036 269.000 C 207.799 269.880,207.424 272.670,207.203 275.200 C 206.657 281.471,206.654 390.400,207.200 390.400 C 207.465 390.400,207.614 371.340,207.640 334.100 C 207.679 279.426,207.803 272.185,208.763 268.400 C 211.817 256.367,221.071 246.068,232.800 241.649 C 238.608 239.461,241.102 239.290,267.900 239.240 L 289.600 239.200 289.600 226.243 C 289.600 214.797,289.526 213.257,288.967 213.043 C 288.076 212.701,247.133 212.859,241.800 213.225 M258.034 314.660 C 258.066 335.695,258.322 343.149,259.138 346.800 C 260.075 350.999,261.523 355.129,262.923 357.600 C 263.359 358.370,264.185 359.829,264.758 360.841 C 266.752 364.365,272.230 370.491,275.200 372.518 C 276.190 373.194,277.090 373.862,277.200 374.003 C 277.410 374.272,282.602 376.791,284.519 377.554 C 285.134 377.799,286.069 378.000,286.595 378.000 C 287.122 378.000,287.649 378.155,287.766 378.346 C 287.961 378.660,292.367 379.245,294.800 379.279 C 298.832 379.336,303.825 378.180,308.311 376.154 C 309.472 375.629,310.563 375.200,310.736 375.200 C 310.908 375.200,311.398 374.885,311.825 374.500 C 312.251 374.115,313.337 373.300,314.237 372.689 C 316.260 371.316,320.740 366.815,322.487 364.400 C 323.203 363.410,324.106 362.251,324.494 361.825 C 324.882 361.398,325.200 360.920,325.200 360.763 C 325.200 360.606,325.790 359.425,326.512 358.138 C 327.233 356.852,328.075 354.990,328.384 354.000 C 328.692 353.010,329.066 352.020,329.214 351.800 C 330.428 350.003,331.589 342.374,331.589 336.200 C 331.589 330.026,330.428 322.397,329.214 320.600 C 329.066 320.380,328.692 319.390,328.384 318.400 C 328.075 317.410,327.233 315.548,326.512 314.262 C 325.790 312.975,325.200 311.794,325.200 311.637 C 325.200 311.480,324.885 311.002,324.500 310.575 C 324.115 310.148,323.264 309.079,322.609 308.200 C 320.723 305.667,316.367 301.255,314.400 299.886 C 313.410 299.197,312.251 298.311,311.825 297.917 C 311.398 297.522,310.902 297.200,310.723 297.200 C 310.543 297.200,309.542 296.791,308.498 296.291 C 307.454 295.791,305.790 295.142,304.800 294.849 C 303.810 294.556,302.550 294.121,302.000 293.881 C 301.336 293.592,293.775 293.391,279.500 293.283 L 258.000 293.120 258.034 314.660 M303.534 295.029 C 317.067 299.157,326.420 310.346,330.428 327.200 C 333.551 340.332,328.284 358.397,318.405 368.434 C 300.604 386.519,271.569 379.194,261.981 354.200 C 258.772 345.835,258.800 346.145,258.800 318.404 L 258.800 294.000 279.479 294.000 L 300.159 294.000 303.534 295.029 " stroke="none" fill="#767676" fill-rule="evenodd"></path><path id="path4" d="M202.200 6.800 C 202.064 7.020,201.515 7.200,200.981 7.200 C 199.325 7.200,198.513 7.960,174.559 31.956 C 155.375 51.172,153.600 53.176,153.600 55.619 C 153.600 57.236,154.473 59.877,155.330 60.850 C 155.809 61.393,156.055 61.618,155.877 61.350 C 154.628 59.465,153.630 55.076,154.348 54.632 C 154.540 54.514,154.813 53.828,154.954 53.108 C 155.210 51.810,194.989 11.548,198.915 8.614 C 200.768 7.229,205.187 6.975,206.980 8.150 C 208.125 8.900,208.385 8.580,207.300 7.757 C 206.915 7.465,206.116 7.220,205.524 7.213 C 204.932 7.206,204.336 7.020,204.200 6.800 C 204.064 6.580,203.614 6.400,203.200 6.400 C 202.786 6.400,202.336 6.580,202.200 6.800 M229.455 30.001 C 241.146 41.770,250.926 51.820,251.188 52.334 C 251.450 52.848,251.753 53.180,251.861 53.072 C 252.562 52.371,237.175 36.609,212.600 12.855 C 210.180 10.516,217.765 18.231,229.455 30.001 M252.072 56.200 C 252.064 58.318,252.112 58.466,252.478 57.460 C 252.761 56.684,252.764 55.919,252.487 55.060 C 252.117 53.910,252.081 54.010,252.072 56.200 M96.800 58.400 C 96.250 58.576,95.080 58.741,94.200 58.766 C 93.320 58.792,92.330 59.000,92.000 59.230 C 91.558 59.537,91.821 59.588,93.000 59.422 C 93.880 59.299,96.200 59.023,98.155 58.811 C 100.110 58.598,101.805 58.328,101.922 58.212 C 102.251 57.882,97.920 58.041,96.800 58.400 M103.200 58.113 C 103.310 58.230,105.200 58.526,107.400 58.770 C 109.600 59.014,112.030 59.317,112.800 59.443 C 113.570 59.568,114.059 59.529,113.886 59.355 C 113.373 58.838,102.719 57.599,103.200 58.113 M251.042 60.437 C 250.147 62.230,250.253 62.451,251.257 60.883 C 251.720 60.159,252.006 59.473,251.892 59.358 C 251.777 59.244,251.395 59.729,251.042 60.437 M88.400 60.000 C 87.925 60.307,88.008 60.388,88.800 60.388 C 89.350 60.388,90.070 60.213,90.400 60.000 C 90.875 59.693,90.792 59.612,90.000 59.612 C 89.450 59.612,88.730 59.787,88.400 60.000 M115.600 60.000 C 115.930 60.213,116.650 60.378,117.200 60.366 C 118.116 60.346,118.133 60.315,117.400 60.000 C 116.216 59.491,114.813 59.491,115.600 60.000 M85.600 60.661 C 85.270 60.770,84.550 61.049,84.000 61.283 C 83.450 61.516,82.640 61.839,82.200 62.000 C 79.699 62.916,78.758 63.374,75.000 65.506 C 68.961 68.932,62.134 74.645,58.736 79.117 C 57.782 80.373,56.912 81.490,56.801 81.600 C 56.172 82.226,53.600 85.571,53.600 85.763 C 53.600 85.889,52.833 87.209,51.895 88.696 C 50.958 90.183,49.985 91.850,49.734 92.400 C 49.483 92.950,48.621 94.812,47.818 96.538 C 47.015 98.264,46.437 99.884,46.533 100.138 C 46.629 100.392,46.837 100.240,46.996 99.800 C 51.744 86.675,61.378 74.692,73.308 67.074 C 74.577 66.263,75.719 65.600,75.846 65.600 C 75.973 65.600,76.565 65.252,77.161 64.828 C 77.758 64.403,79.046 63.756,80.023 63.390 C 81.000 63.025,82.250 62.538,82.800 62.309 C 83.350 62.080,84.160 61.759,84.600 61.594 C 87.106 60.659,87.924 59.895,85.600 60.661 M119.000 60.800 C 119.136 61.020,119.477 61.200,119.757 61.200 C 120.445 61.200,127.922 64.257,129.063 65.005 C 131.304 66.473,133.600 67.590,133.600 67.213 C 133.600 66.986,133.435 66.800,133.233 66.800 C 133.031 66.800,131.496 65.990,129.822 65.000 C 128.147 64.010,126.600 63.200,126.383 63.200 C 126.166 63.200,125.677 63.041,125.295 62.847 C 123.997 62.187,119.377 60.400,118.968 60.400 C 118.850 60.400,118.864 60.580,119.000 60.800 M156.800 62.354 C 156.800 62.599,157.070 62.800,157.400 62.800 C 157.730 62.800,158.000 62.980,158.000 63.200 C 158.000 63.420,158.349 63.600,158.776 63.600 C 159.203 63.600,159.664 63.780,159.800 64.000 C 159.950 64.243,162.860 64.400,167.190 64.400 C 171.670 64.400,174.409 64.553,174.537 64.810 C 174.649 65.035,174.694 64.991,174.638 64.710 C 174.562 64.331,172.744 64.140,167.568 63.966 C 160.549 63.730,159.346 63.550,157.700 62.488 C 157.118 62.113,156.800 62.066,156.800 62.354 M248.589 62.538 C 247.118 63.540,245.812 63.731,238.800 63.966 L 231.800 64.200 231.592 128.600 C 231.446 174.006,231.255 193.295,230.946 194.000 C 230.188 195.728,229.858 199.605,230.471 199.572 C 231.750 199.504,232.653 198.858,231.510 198.828 C 230.328 198.798,230.292 198.319,231.206 194.800 C 232.008 191.715,232.138 182.206,232.168 124.500 L 232.200 64.400 239.276 64.400 C 243.563 64.400,246.450 64.242,246.600 64.000 C 246.736 63.780,247.197 63.600,247.624 63.600 C 248.051 63.600,248.400 63.420,248.400 63.200 C 248.400 62.980,248.659 62.800,248.976 62.800 C 249.293 62.800,249.664 62.620,249.800 62.400 C 250.151 61.833,249.518 61.905,248.589 62.538 M134.000 67.735 C 134.000 67.810,135.485 69.008,137.300 70.398 C 140.388 72.763,145.181 77.314,147.000 79.609 C 151.331 85.072,153.828 88.889,155.632 92.800 C 156.291 94.230,157.184 96.092,157.615 96.938 C 158.047 97.784,158.400 98.718,158.400 99.014 C 158.400 99.310,158.599 99.676,158.843 99.826 C 160.087 100.596,156.132 92.085,152.882 87.000 C 149.286 81.374,143.067 74.126,139.839 71.800 C 137.029 69.775,134.989 68.174,134.867 67.900 C 134.736 67.607,134.000 67.467,134.000 67.735 M45.800 102.000 C 45.648 102.691,45.614 103.347,45.724 103.457 C 45.834 103.567,46.048 103.091,46.200 102.400 C 46.352 101.709,46.386 101.053,46.276 100.943 C 46.166 100.833,45.952 101.309,45.800 102.000 M159.206 101.276 C 159.218 102.281,159.987 103.108,159.994 102.124 C 159.997 101.642,159.820 101.136,159.600 101.000 C 159.380 100.864,159.203 100.988,159.206 101.276 M160.000 103.703 C 160.000 103.759,160.200 104.434,160.444 105.203 C 160.688 105.971,161.048 107.455,161.244 108.500 C 161.440 109.545,161.787 111.345,162.016 112.500 C 162.912 117.027,163.226 129.330,163.116 155.486 C 163.052 170.494,163.122 182.464,163.272 182.086 C 163.691 181.028,163.599 123.152,163.171 118.400 C 162.582 111.870,162.351 110.230,161.961 109.820 C 161.763 109.611,161.600 108.767,161.600 107.944 C 161.600 107.121,161.420 106.336,161.200 106.200 C 160.980 106.064,160.800 105.423,160.800 104.776 C 160.800 104.129,160.620 103.600,160.400 103.600 C 160.180 103.600,160.000 103.646,160.000 103.703 M45.067 104.267 C 44.920 104.413,44.815 104.998,44.834 105.567 C 44.868 106.581,44.875 106.579,45.221 105.420 C 45.585 104.203,45.531 103.802,45.067 104.267 M43.849 108.700 C 43.249 113.704,43.088 114.632,42.745 115.055 C 42.306 115.597,42.240 133.419,42.675 134.117 C 42.948 134.556,43.199 135.931,43.857 140.600 C 43.981 141.480,44.244 142.371,44.441 142.580 C 44.638 142.789,44.800 143.453,44.800 144.056 C 44.800 144.659,44.980 145.264,45.200 145.400 C 45.708 145.714,45.704 145.340,45.181 143.597 C 44.774 142.242,44.340 140.157,43.517 135.600 C 43.298 134.390,43.032 130.070,42.924 126.000 C 42.740 119.014,42.869 117.247,44.007 111.200 C 44.705 107.487,44.771 106.800,44.429 106.800 C 44.235 106.800,43.975 107.655,43.849 108.700 M45.606 146.876 C 45.618 147.881,46.387 148.708,46.394 147.724 C 46.397 147.242,46.220 146.736,46.000 146.600 C 45.780 146.464,45.603 146.588,45.606 146.876 M46.589 149.658 C 46.843 150.969,49.606 156.927,49.848 156.686 C 49.999 156.535,48.483 152.930,46.868 149.600 L 46.383 148.600 46.589 149.658 M50.131 157.764 C 50.250 158.073,51.079 159.532,51.973 161.004 C 52.868 162.477,53.600 163.751,53.600 163.836 C 53.600 163.921,53.861 164.308,54.181 164.695 C 54.501 165.083,55.775 166.660,57.012 168.200 C 59.315 171.066,66.353 178.400,66.800 178.400 C 66.937 178.400,67.398 178.718,67.825 179.106 C 68.832 180.023,72.649 182.800,72.903 182.800 C 73.011 182.800,74.471 183.625,76.149 184.633 C 77.827 185.642,79.384 186.405,79.610 186.330 C 79.836 186.255,79.341 185.835,78.510 185.398 C 72.078 182.014,66.440 177.954,62.612 173.951 C 59.722 170.928,54.206 164.182,53.494 162.800 C 51.629 159.177,49.382 155.813,50.131 157.764 M339.775 179.020 L 337.800 180.839 340.000 179.221 C 342.926 177.069,345.880 176.922,348.765 178.785 C 351.035 180.250,391.154 220.449,392.340 222.447 C 393.629 224.617,393.538 228.108,392.138 230.207 C 390.335 232.910,350.020 273.106,348.217 273.999 C 347.327 274.439,346.921 274.800,347.314 274.800 C 348.954 274.800,349.889 273.898,383.655 239.739 L 393.600 229.678 393.600 226.444 C 393.600 223.980,393.434 222.994,392.902 222.305 C 391.342 220.282,350.476 179.452,348.928 178.369 C 346.055 176.360,342.378 176.622,339.775 179.020 M336.897 182.794 C 336.586 183.790,336.400 186.831,336.400 190.907 L 336.400 197.426 290.100 197.281 C 261.785 197.193,243.178 197.284,242.200 197.516 C 241.167 197.760,257.647 197.878,288.700 197.847 L 336.800 197.800 336.804 191.400 C 336.807 186.984,336.987 184.411,337.385 183.100 C 337.702 182.055,337.834 181.200,337.678 181.200 C 337.522 181.200,337.171 181.917,336.897 182.794 M161.762 184.623 C 160.833 186.581,158.472 188.883,156.325 189.924 C 155.376 190.384,154.834 190.769,155.120 190.780 C 157.244 190.862,163.760 184.427,162.664 183.330 C 162.556 183.223,162.151 183.805,161.762 184.623 M174.267 184.677 C 173.546 189.633,172.966 191.672,171.691 193.738 C 171.169 194.584,170.819 195.352,170.913 195.446 C 171.216 195.749,173.200 192.442,173.200 191.632 C 173.200 191.200,173.350 190.755,173.533 190.642 C 173.936 190.393,175.021 183.688,174.709 183.376 C 174.588 183.254,174.389 183.840,174.267 184.677 M50.116 186.193 C 46.778 187.711,4.396 230.235,4.401 232.062 C 4.402 232.358,4.777 231.970,5.235 231.200 C 6.289 229.425,46.886 188.663,48.892 187.365 C 49.713 186.834,50.712 186.400,51.112 186.400 C 51.512 186.400,52.060 186.180,52.330 185.910 C 52.717 185.523,52.985 185.523,53.605 185.910 C 54.036 186.180,54.741 186.400,55.172 186.400 C 56.122 186.400,58.800 187.926,58.800 188.468 C 58.800 188.682,59.070 189.127,59.399 189.457 C 59.729 189.786,60.103 190.538,60.231 191.128 C 60.358 191.718,60.628 192.560,60.831 193.000 C 61.033 193.440,61.255 196.320,61.324 199.400 L 61.449 205.000 61.424 198.800 C 61.389 189.744,60.489 187.989,54.681 185.651 C 53.138 185.029,52.514 185.103,50.116 186.193 M82.600 187.600 C 82.736 187.820,83.109 188.000,83.429 188.000 C 83.749 188.000,84.323 188.159,84.705 188.353 C 86.330 189.180,87.507 189.552,89.200 189.775 C 90.467 189.941,90.822 189.893,90.400 189.612 C 90.070 189.392,89.439 189.209,88.998 189.206 C 88.557 189.203,86.956 188.750,85.440 188.200 C 82.309 187.065,82.263 187.055,82.600 187.600 M92.800 190.621 C 95.082 191.340,95.680 191.332,94.400 190.600 C 93.850 190.286,92.860 190.034,92.200 190.041 C 91.137 190.052,91.205 190.118,92.800 190.621 M98.800 191.270 C 101.257 191.639,153.284 191.662,153.861 191.294 C 154.115 191.132,141.425 191.000,125.661 191.000 C 109.898 191.000,97.810 191.122,98.800 191.270 M170.000 196.327 C 170.000 196.507,169.048 197.677,167.885 198.927 C 166.721 200.177,165.882 201.200,166.020 201.200 C 166.247 201.200,168.231 199.134,170.162 196.887 C 170.589 196.389,170.721 196.000,170.462 196.000 C 170.208 196.000,170.000 196.147,170.000 196.327 M233.400 198.400 C 233.085 198.909,234.012 198.909,234.800 198.400 C 235.288 198.085,235.236 198.011,234.524 198.006 C 234.042 198.003,233.536 198.180,233.400 198.400 M237.700 198.276 C 238.085 198.376,238.715 198.376,239.100 198.276 C 239.485 198.175,239.170 198.093,238.400 198.093 C 237.630 198.093,237.315 198.175,237.700 198.276 M164.202 202.124 C 163.763 202.386,162.907 202.928,162.300 203.328 C 161.693 203.729,160.613 204.239,159.898 204.462 C 159.184 204.684,157.970 205.071,157.200 205.321 C 156.212 205.642,144.200 205.840,116.400 205.992 L 77.000 206.208 116.281 206.304 C 138.733 206.359,155.956 206.246,156.481 206.042 C 156.987 205.845,158.210 205.446,159.200 205.155 C 160.875 204.664,166.288 201.584,165.400 201.627 C 165.180 201.638,164.641 201.861,164.202 202.124 M65.121 206.299 C 67.388 206.370,70.988 206.370,73.121 206.298 C 75.255 206.226,73.400 206.168,69.000 206.168 C 64.600 206.168,62.855 206.227,65.121 206.299 M3.803 233.985 C 3.660 234.636,3.730 235.491,3.959 235.885 C 4.290 236.454,4.378 236.211,4.388 234.700 C 4.402 232.531,4.182 232.262,3.803 233.985 M4.416 237.338 C 4.373 239.363,49.202 284.532,50.232 283.501 C 50.348 283.386,49.848 282.919,49.121 282.465 C 46.847 281.042,5.695 239.538,5.033 238.000 C 4.671 237.158,4.425 236.894,4.416 237.338 M241.062 255.100 C 240.896 255.368,296.960 255.363,325.200 255.092 C 331.250 255.034,314.836 254.945,288.724 254.893 C 262.612 254.842,241.164 254.935,241.062 255.100 M336.481 261.400 C 336.413 268.139,336.606 269.532,337.944 271.934 C 338.231 272.448,338.569 272.764,338.697 272.637 C 338.824 272.509,338.655 272.089,338.321 271.702 C 337.286 270.507,337.093 269.235,336.817 261.800 L 336.550 254.600 336.481 261.400 M236.600 256.658 C 234.014 257.978,232.006 259.315,232.003 259.720 C 232.001 259.897,232.585 259.614,233.300 259.093 C 234.508 258.213,236.822 257.023,239.200 256.059 C 240.041 255.718,240.073 255.653,239.400 255.646 C 238.960 255.641,237.700 256.097,236.600 256.658 M230.142 261.110 C 227.142 264.026,223.943 269.413,224.040 271.389 C 224.063 271.860,224.292 271.528,224.587 270.595 C 225.429 267.931,227.279 264.850,229.534 262.359 C 231.766 259.891,232.098 259.209,230.142 261.110 M164.400 262.056 C 159.158 263.091,92.246 263.776,69.700 263.025 C 62.776 262.795,61.200 262.840,61.200 263.271 C 61.200 263.707,69.359 263.795,107.500 263.769 C 152.025 263.739,159.422 263.575,164.935 262.495 C 166.300 262.228,166.909 262.246,167.003 262.558 C 167.441 264.009,167.540 264.069,167.568 262.900 C 167.603 261.462,167.520 261.440,164.400 262.056 M166.688 264.933 C 166.242 266.066,166.315 266.645,166.838 266.122 C 167.078 265.882,167.208 265.351,167.126 264.942 C 166.982 264.226,166.966 264.226,166.688 264.933 M61.288 270.476 C 61.237 273.863,61.030 276.458,60.800 276.600 C 60.580 276.736,60.413 277.332,60.428 277.924 C 60.453 278.878,60.522 278.820,61.039 277.409 C 61.471 276.227,61.589 274.378,61.499 270.209 L 61.376 264.600 61.288 270.476 M166.493 270.000 C 166.493 270.770,166.575 271.085,166.676 270.700 C 166.776 270.315,166.776 269.685,166.676 269.300 C 166.575 268.915,166.493 269.230,166.493 270.000 M244.400 269.595 C 244.070 269.811,243.388 269.991,242.884 269.994 C 239.822 270.014,235.526 274.907,234.449 279.600 C 233.504 283.716,234.229 347.156,235.233 348.184 C 235.466 348.423,235.493 347.819,235.304 346.584 C 235.137 345.493,235.000 329.660,235.000 311.400 L 235.000 278.200 236.148 276.129 C 239.755 269.620,240.426 269.501,272.200 269.736 C 295.967 269.911,301.293 270.136,305.600 271.144 C 307.894 271.681,308.100 271.686,307.800 271.200 C 307.664 270.980,306.969 270.800,306.256 270.800 C 305.543 270.800,304.789 270.635,304.580 270.432 C 303.623 269.506,245.766 268.702,244.400 269.595 M309.200 272.000 C 310.636 272.460,311.284 272.460,311.000 272.000 C 310.864 271.780,310.178 271.618,309.476 271.640 C 308.257 271.678,308.245 271.694,309.200 272.000 M165.904 273.800 C 165.742 274.680,165.607 302.715,165.604 336.100 L 165.600 396.800 158.180 396.800 C 150.300 396.800,149.425 396.971,147.799 398.833 C 147.175 399.548,147.343 399.491,148.568 398.574 L 150.136 397.400 158.036 397.200 C 162.381 397.090,166.041 396.894,166.169 396.765 C 166.298 396.636,166.357 368.556,166.301 334.365 C 166.246 300.174,166.067 272.920,165.904 273.800 M223.467 272.667 C 223.320 272.813,223.244 300.578,223.297 334.367 L 223.394 395.800 223.597 334.200 C 223.709 300.320,223.785 272.555,223.767 272.500 C 223.748 272.445,223.613 272.520,223.467 272.667 M312.400 272.875 C 314.416 273.724,315.032 273.958,316.600 274.471 C 323.301 276.666,334.630 285.386,340.087 292.549 C 341.448 294.337,342.713 295.980,342.896 296.200 C 343.462 296.880,347.374 303.343,347.859 304.400 C 350.119 309.321,351.273 312.383,352.381 316.400 C 352.654 317.390,353.040 318.513,353.239 318.895 C 353.438 319.277,353.603 320.267,353.606 321.095 C 353.609 321.923,353.797 322.870,354.023 323.200 C 355.031 324.674,353.140 315.791,351.959 313.505 C 351.762 313.123,351.600 312.536,351.600 312.200 C 351.600 311.864,351.435 311.277,351.234 310.895 C 351.032 310.513,350.561 309.480,350.187 308.600 C 348.668 305.028,347.059 301.792,346.739 301.667 C 346.553 301.593,346.400 301.372,346.400 301.174 C 346.400 300.545,342.041 294.029,340.798 292.800 C 340.686 292.690,340.124 291.970,339.549 291.200 C 336.846 287.584,327.336 279.358,323.710 277.499 C 323.099 277.187,321.880 276.515,321.000 276.007 C 319.002 274.853,312.813 272.391,312.003 272.427 C 311.671 272.442,311.850 272.644,312.400 272.875 M343.200 275.200 C 343.530 275.413,344.160 275.588,344.600 275.588 C 345.040 275.588,345.670 275.413,346.000 275.200 C 346.431 274.921,346.037 274.812,344.600 274.812 C 343.163 274.812,342.769 274.921,343.200 275.200 M59.600 279.704 C 59.600 280.435,57.124 282.481,55.550 283.051 C 54.804 283.321,54.522 283.553,54.920 283.570 C 55.692 283.602,57.875 282.583,58.607 281.848 C 59.559 280.893,60.478 279.200,60.046 279.200 C 59.801 279.200,59.600 279.427,59.600 279.704 M51.500 283.882 C 51.995 283.978,52.805 283.978,53.300 283.882 C 53.795 283.787,53.390 283.709,52.400 283.709 C 51.410 283.709,51.005 283.787,51.500 283.882 M354.451 325.800 C 354.448 326.240,354.595 327.320,354.777 328.200 L 355.108 329.800 355.126 328.200 C 355.136 327.320,354.989 326.240,354.800 325.800 L 354.456 325.000 354.451 325.800 M354.931 336.200 C 354.933 337.740,355.005 338.321,355.092 337.491 C 355.179 336.661,355.177 335.401,355.089 334.691 C 355.000 333.981,354.929 334.660,354.931 336.200 M354.667 344.747 C 354.498 345.927,354.447 346.981,354.554 347.088 C 354.849 347.382,355.290 344.636,355.122 343.552 C 355.032 342.970,354.855 343.434,354.667 344.747 M235.606 350.433 C 235.609 351.405,235.794 352.470,236.016 352.800 C 236.297 353.218,236.339 352.733,236.155 351.200 C 235.825 348.447,235.598 348.129,235.606 350.433 M353.843 349.433 C 353.709 349.781,353.600 350.683,353.600 351.438 C 353.600 352.193,353.435 353.123,353.234 353.505 C 353.032 353.887,352.479 355.550,352.005 357.200 C 350.873 361.135,350.141 363.043,347.860 368.000 C 347.384 369.034,343.479 375.493,342.902 376.200 C 342.723 376.420,342.041 377.316,341.388 378.192 C 340.735 379.068,339.930 380.142,339.600 380.579 C 334.396 387.475,322.592 396.124,315.043 398.573 C 314.626 398.708,314.378 398.911,314.491 399.024 C 314.951 399.484,321.933 396.176,325.449 393.833 C 331.441 389.839,336.564 385.178,340.214 380.400 C 341.306 378.970,342.310 377.710,342.445 377.600 C 342.903 377.226,346.400 371.594,346.400 371.229 C 346.400 371.030,346.553 370.807,346.739 370.733 C 347.059 370.608,348.668 367.372,350.187 363.800 C 350.561 362.920,351.032 361.887,351.234 361.505 C 351.435 361.123,351.600 360.536,351.600 360.200 C 351.600 359.864,351.762 359.277,351.959 358.895 C 352.584 357.684,353.961 352.673,354.209 350.700 C 354.450 348.791,354.295 348.255,353.843 349.433 M236.412 354.400 C 236.412 354.730,236.587 355.270,236.800 355.600 C 237.145 356.133,237.188 356.133,237.188 355.600 C 237.188 355.270,237.013 354.730,236.800 354.400 C 236.455 353.867,236.412 353.867,236.412 354.400 M237.200 357.162 C 237.200 357.740,238.338 361.145,239.061 362.732 C 239.848 364.459,240.250 364.085,239.490 362.332 C 238.266 359.510,238.000 358.737,238.000 358.005 C 238.000 357.588,237.820 357.136,237.600 357.000 C 237.380 356.864,237.200 356.937,237.200 357.162 M240.022 364.820 C 240.010 365.161,240.151 365.611,240.336 365.820 C 240.521 366.029,240.913 366.830,241.208 367.600 C 241.753 369.024,245.530 375.200,245.855 375.200 C 246.039 375.200,244.156 371.787,243.485 370.904 C 243.278 370.631,242.419 369.011,241.576 367.304 C 240.733 365.597,240.034 364.479,240.022 364.820 M246.000 375.824 C 246.000 375.973,246.495 376.668,247.100 377.369 C 247.705 378.070,248.650 379.262,249.200 380.018 C 253.502 385.928,267.767 397.566,269.089 396.244 C 269.191 396.142,268.683 395.753,267.960 395.379 C 260.958 391.758,254.609 386.356,249.527 379.692 C 246.808 376.128,246.000 375.241,246.000 375.824 M223.519 396.871 C 223.674 397.020,227.130 397.200,231.200 397.271 C 238.879 397.405,240.362 397.760,241.673 399.780 C 242.622 401.243,243.205 401.705,242.528 400.458 C 242.128 399.719,241.059 398.602,240.153 397.975 L 238.506 396.834 230.872 396.717 C 226.673 396.653,223.365 396.722,223.519 396.871 M269.600 396.739 C 269.600 396.885,270.095 397.208,270.700 397.456 C 277.540 400.260,279.000 400.798,279.740 400.787 C 280.213 400.779,279.610 400.432,278.400 400.015 C 277.190 399.599,274.715 398.631,272.900 397.866 C 271.085 397.100,269.600 396.593,269.600 396.739 M311.000 400.036 C 309.501 400.582,309.258 400.769,310.029 400.782 C 310.594 400.792,311.764 400.447,312.629 400.016 C 314.571 399.047,313.683 399.058,311.000 400.036 M146.400 400.600 C 146.400 400.930,146.220 401.200,146.000 401.200 C 145.780 401.200,145.600 401.639,145.600 402.176 C 145.600 402.713,145.399 403.277,145.154 403.428 C 144.268 403.976,145.822 409.600,146.860 409.600 C 147.062 409.600,147.002 409.195,146.726 408.700 C 145.100 405.786,145.089 404.150,146.674 401.100 C 147.026 400.421,147.083 400.000,146.823 400.000 C 146.590 400.000,146.400 400.270,146.400 400.600 M281.000 401.200 C 281.136 401.420,281.856 401.600,282.600 401.600 C 283.344 401.600,284.048 401.754,284.164 401.941 C 284.464 402.427,289.873 402.943,294.800 402.957 C 298.477 402.966,300.603 402.760,307.300 401.744 C 308.125 401.618,308.800 401.341,308.800 401.126 C 308.800 400.729,307.065 400.954,305.200 401.593 C 301.495 402.861,289.059 402.722,283.616 401.350 C 281.011 400.694,280.675 400.675,281.000 401.200 M243.206 402.876 C 243.203 403.468,243.380 404.064,243.600 404.200 C 244.111 404.516,244.111 403.190,243.600 402.400 C 243.297 401.931,243.211 402.034,243.206 402.876 M243.422 405.929 C 243.258 406.659,243.222 407.356,243.342 407.476 C 243.643 407.777,244.120 405.756,243.899 405.117 C 243.801 404.833,243.586 405.198,243.422 405.929 M242.260 408.836 C 240.821 410.890,200.059 451.745,198.565 452.631 C 196.593 453.800,193.067 453.954,191.080 452.959 C 190.376 452.606,180.191 442.751,168.447 431.059 C 156.703 419.366,147.218 410.022,147.368 410.294 C 147.979 411.403,188.966 452.400,189.462 452.400 C 189.758 452.400,190.001 452.535,190.003 452.700 C 190.010 453.364,192.302 454.000,194.685 454.000 C 197.114 454.000,198.062 453.697,199.695 452.400 C 201.166 451.232,241.775 410.387,242.150 409.699 C 242.360 409.315,242.722 408.875,242.954 408.722 C 243.187 408.569,243.265 408.332,243.129 408.196 C 242.993 408.060,242.602 408.348,242.260 408.836 " stroke="none" fill="#445d8a" fill-rule="evenodd"></path></g></svg>