<svg xmlns="http://www.w3.org/2000/svg" xmlns:xlink="http://www.w3.org/1999/xlink" viewBox="0 0 86 48" fill="#fff" fill-rule="evenodd" stroke="#000" stroke-linecap="round" stroke-linejoin="round"><use xlink:href="#A" x=".5" y=".5"/><symbol id="A" overflow="visible"><g stroke="none" fill-rule="nonzero"><path d="M19.867 46.232h1.114l-3.82-9.727h-.654l-3.908 9.727h1.097l1.203-3.007h3.75zm-3.272-7.27l.212-.6c.07.23.14.424.212.566l1.22 3.237h-2.9zm10.647 7.27h-1.06v-8.49h-3.325l-.46-1.06h7.853v1.06h-3.007zm6.72-9.55h1.06v9.55h-1.06zm6.898 8.666h4.422v.884h-5.483v-9.55h1.06zm9.374 0h4.422v.884h-5.483v-9.55h1.06z" fill="#333"/><path d="M58.547 36.68h1.06v9.55h-1.06zm9.763 9.763c-1.344 0-2.423-.46-3.2-1.362-.76-.884-1.15-2.122-1.15-3.643s.39-2.74 1.167-3.626 1.857-1.344 3.2-1.344 2.423.46 3.2 1.344c.76.884 1.15 2.105 1.15 3.626s-.39 2.74-1.15 3.626c-.796.92-1.875 1.38-3.22 1.38zm.018-8.985c-1.043 0-1.875.336-2.44 1.026s-.867 1.68-.867 2.97.283 2.3.85 2.99 1.362 1.026 2.44 1.026 1.875-.336 2.44-1.026.85-1.698.85-3.007c0-1.29-.283-2.3-.85-2.99-.566-.654-1.362-1-2.423-1z" fill="#669a41"/><path d="M83.131 36.68h1.06v9.55h-1.08l-5.13-7.71.018 1.556v6.155h-1.06v-9.55h1.06l5.13 7.694M9.023 36.681H7.82l-3.22 6.58-3.22-6.58H0v9.55h1.06v-7.092l-.018-.902 3.2 6.597h.7l3.184-6.544c-.018.248.018.53.018.778v7.163h1.06v-9.55z" fill="#333"/><path d="M42.125 0L14.219 27.905h9.683l23.063-23zm1.197 27.905l8.486-8.486 8.486 8.486h9.683l-18.17-18.17-18.17 18.17z" fill="#669a41"/></g></symbol></svg>