<svg xmlns="http://www.w3.org/2000/svg" xmlns:xlink="http://www.w3.org/1999/xlink" viewBox="0 0 80 92" fill="#fff" fill-rule="evenodd" stroke="#000" stroke-linecap="round" stroke-linejoin="round"><use xlink:href="#C" x=".5" y=".5"/><defs><linearGradient id="A" x1="100.00%" y1="38.87%" x2="0.00%" y2="38.08%"><stop offset="0%" stop-color="#366a96"/><stop offset="100%" stop-color="#3679b0"/></linearGradient><linearGradient id="B" x1="100.00%" y1="50.00%" x2="-97.55%" y2="50.00%"><stop offset="0%" stop-color="#ffc836"/><stop offset="100%" stop-color="#ffe873"/></linearGradient></defs><symbol id="C" overflow="visible"><g stroke="none" fill-rule="nonzero"><path d="M9.491 77.006c0-3.742-1.091-5.664-3.274-5.768a6.28 6.28 0 0 0-2.541.408c-.659.232-1.101.458-1.335.689v8.932c1.396.858 2.637 1.255 3.718 1.201 2.288-.148 3.433-1.973 3.433-5.453zm2.693.154c0 1.901-.456 3.479-1.372 4.735-1.022 1.421-2.439 2.151-4.25 2.192-1.366.043-2.772-.376-4.22-1.252v8.118L0 90.136V72.117c.384-.461.879-.858 1.478-1.201 1.394-.794 3.088-1.203 5.08-1.222l.034.033c1.822-.022 3.225.709 4.203 2.192.919 1.36 1.372 3.103 1.372 5.235zm14.31 5.329c0 2.55-.262 4.314-.784 5.297s-1.524 1.767-3 2.35c-1.197.461-2.49.712-3.879.755l-.386-1.443c1.412-.189 2.406-.376 2.982-.564 1.135-.376 1.913-.944 2.342-1.715.343-.629.512-1.829.512-3.604v-.596c-1.601.712-3.279 1.064-5.035 1.064a4.69 4.69 0 0 1-3.046-1.064c-.984-.774-1.475-1.756-1.475-2.946v-9.536l2.342-.784v9.59c0 1.024.338 1.813 1.015 2.367s1.544.819 2.626.799 2.224-.429 3.446-1.222V70.05h2.342v12.442zm9.144 1.473l-.772.033c-1.324 0-2.357-.309-3.095-.926s-1.104-1.473-1.104-2.562v-9.017h-1.604v-1.441h1.604v-3.826l2.339-.815v4.639h2.632v1.441h-2.625v8.955c0 .859.236 1.458.707 1.824.405.293 1.048.461 1.924.504v1.201zm14.177-.189h-2.342v-8.835c0-.899-.215-1.673-.643-2.319a2.35 2.35 0 0 0-2.062-1.097c-1.074 0-2.416.553-4.027 1.661v10.593h-2.342V62.654l2.342-.721v9.609c1.496-1.064 3.131-1.598 4.906-1.598 1.24 0 2.245.408 3.013 1.222s1.155 1.829 1.155 3.041v9.558zm12.448-7.119c0-1.438-.28-2.625-.835-3.564-.66-1.145-1.688-1.748-3.077-1.801-2.567.146-3.848 1.944-3.848 5.39 0 1.581.257 2.901.805 3.96.686 1.35 1.715 2.016 3.09 1.993 2.578-.02 3.866-2.009 3.866-5.97zm2.573.016c0 2.046-.535 3.75-1.604 5.109-1.175 1.523-2.801 2.287-4.872 2.287-2.054 0-3.656-.772-4.803-2.287-1.048-1.36-1.57-3.062-1.57-5.109 0-1.924.566-3.543 1.698-4.859 1.197-1.398 2.77-2.099 4.714-2.099s3.528.702 4.748 2.099c1.132 1.317 1.698 2.935 1.698 4.859zm13.415 7.112H75.9v-9.337c0-1.024-.315-1.824-.945-2.4s-1.47-.852-2.518-.829c-1.112.02-2.17.376-3.174 1.064v11.494h-2.342V71.988c1.347-.959 2.588-1.585 3.72-1.887 1.069-.273 2.011-.408 2.824-.408a7.41 7.41 0 0 1 1.57.158c.919.208 1.667.594 2.245 1.16a3.03 3.03 0 0 1 .963 2.256v10.499z" fill="#646464"/><path d="M21.458 7.636c0-3.929 1.078-6.066 7.027-7.084 4.039-.692 9.219-.779 14.05 0 3.816.616 7.027 3.394 7.027 7.084v12.962c0 3.802-3.118 6.916-7.027 6.916h-14.05c-4.768 0-8.787 3.975-8.787 8.468v6.219h-4.831c-4.086 0-6.465-2.881-7.465-6.911-1.348-5.415-1.291-8.641 0-13.828 1.119-4.524 4.695-6.911 8.782-6.911h19.328v-1.73H21.458V7.636z" fill="url(#A)"/><path d="M49.563 49.118c0 3.929-3.488 5.919-7.027 6.911-5.325 1.496-9.599 1.267-14.05 0-3.717-1.059-7.027-3.221-7.027-6.911V36.155c0-3.73 3.181-6.916 7.027-6.916h14.05c4.68 0 8.787-3.951 8.787-8.641v-6.046h5.268c4.091 0 6.018 2.972 7.027 6.911 1.405 5.471 1.468 9.563 0 13.828-1.421 4.143-2.941 6.911-7.027 6.911H35.514v1.73h14.05v5.185z" fill="url(#B)"/><path d="M24.972 6.776c0-1.435 1.176-2.596 2.634-2.596 1.452 0 2.634 1.16 2.634 2.596s-1.182 2.59-2.634 2.59-2.634-1.16-2.634-2.59zm15.812 43.202c0-1.43 1.182-2.59 2.634-2.59s2.634 1.16 2.634 2.59-1.176 2.596-2.634 2.596c-1.452 0-2.634-1.16-2.634-2.596z"/></g></symbol></svg>